Coordinates
version=1
nRows=8
nColumns=40
inDegrees=yes

Units are S.I. units (second, meters, Newtons, ...)
Angles are in degrees.

endheader
time	pelvis_tilt	pelvis_list	pelvis_rotation	pelvis_tx	pelvis_ty	pelvis_tz	hip_flexion_r	hip_adduction_r	hip_rotation_r	knee_angle_r	knee_angle_r_beta	ankle_angle_r	subtalar_angle_r	mtp_angle_r	hip_flexion_l	hip_adduction_l	hip_rotation_l	knee_angle_l	knee_angle_l_beta	ankle_angle_l	subtalar_angle_l	mtp_angle_l	lumbar_extension	lumbar_bending	lumbar_rotation	arm_flex_r	arm_add_r	arm_rot_r	elbow_flex_r	pro_sup_r	wrist_flex_r	wrist_dev_r	arm_flex_l	arm_add_l	arm_rot_l	elbow_flex_l	pro_sup_l	wrist_flex_l	wrist_dev_l
     38.04000000	     -1.55183453	     -4.61038059	      0.65166638	      1.13097981	      0.93375786	      0.53440111	     10.49928753	      2.66080534	    -14.70819741	     17.21210491	     17.21210491	      9.89448745	     -0.46119843	     -4.45999839	     24.78713328	    -13.41617640	     -1.18432537	     60.35562058	     60.35562058	     10.07895553	    -17.86486899	     10.56429558	    -10.80356218	      6.42755300	      1.46026007	      8.47533834	    -19.78403173	     -2.62100526	     49.76718025	     45.83719531	      0.00000000	      0.00000000	      3.48878092	     -9.71383468	    -11.66544185	     32.17102680	     45.98268215	      0.00000000	      0.00000000
     38.05378571	     -1.79982984	     -4.38578332	      1.16820024	      1.12917345	      0.93396706	      0.53467604	     10.24858379	      2.49391964	    -14.93959394	     16.79830553	     16.79830553	     10.01665835	     -0.66673160	     -4.47632047	     26.41185413	    -13.09804501	     -1.09135626	     58.37343457	     58.37343457	     10.20882328	    -18.07646171	     10.63885464	    -10.73630868	      6.25875333	      1.67817808	      9.32723186	    -20.13251401	     -2.71487295	     50.23457265	     45.82643798	      0.00000000	      0.00000000	      3.24861636	     -9.64095164	    -11.70019865	     32.06102050	     45.98850456	      0.00000000	      0.00000000
     38.06757143	     -2.04115151	     -4.14293688	      1.67412152	      1.12740575	      0.93413147	      0.53483126	      9.98862176	      2.29863227	    -15.16585968	     16.39175476	     16.39175476	     10.15540459	     -0.84755307	     -4.52365724	     27.81983400	    -12.69517786	     -1.06486138	     56.05620227	     56.05620227	     10.29255358	    -18.17202358	     10.78267985	    -10.67730908	      6.13366215	      1.93220865	     10.21297988	    -20.55954316	     -2.79731090	     50.68893678	     45.81680596	      0.00000000	      0.00000000	      3.00634399	     -9.55285520	    -11.72805973	     31.96455597	     45.99162874	      0.00000000	      0.00000000
     38.08135714	     -2.21052573	     -3.95801897	      2.19457458	      1.12576407	      0.93442029	      0.53501919	      9.61348577	      2.17939444	    -15.45965519	     15.91738800	     15.91738800	     10.18756013	     -0.99543983	     -4.65705192	     28.91688956	    -12.26070649	     -0.98574955	     53.34996751	     53.34996751	     10.23547912	    -18.29936772	     10.99195677	    -10.69685115	      5.95584043	      2.01172324	     11.05378042	    -20.90042183	     -2.78015361	     51.24791196	     45.79763559	      0.00000000	      0.00000000	      2.75440450	     -9.52246142	    -11.80163442	     31.82605288	     46.00341809	      0.00000000	      0.00000000
     38.09514286	     -2.38693845	     -3.78180133	      2.69826060	      1.12418997	      0.93458611	      0.53506557	      9.25397225	      2.05911071	    -15.72833697	     15.46303382	     15.46303382	     10.24996595	     -1.11295855	     -4.85886961	     29.85375512	    -11.75371176	     -0.87192336	     50.41729238	     50.41729238	     10.12332111	    -18.25535239	     11.21582336	    -10.69279195	      5.85234028	      2.17471357	     11.88349715	    -21.31790636	     -2.72349864	     51.76861122	     45.77823501	      0.00000000	      0.00000000	      2.52009051	     -9.45469254	    -11.89106938	     31.71039589	     46.01758837	      0.00000000	      0.00000000
     38.10892857	     -2.53670324	     -3.62824620	      3.19198356	      1.12274017	      0.93469934	      0.53493861	      8.79183869	      1.95969950	    -16.10697052	     14.83825542	     14.83825542	      9.89558540	     -1.17238762	     -6.20140960	     30.52476546	    -11.21226820	     -0.75514933	     47.13519718	     47.13519718	      9.51669849	    -18.16415475	     10.29485056	    -10.72222203	      5.78626194	      2.20760490	     12.65670220	    -22.00194038	     -1.69750597	     52.67638152	     45.69047024	      0.00000000	      0.00000000	      2.32802959	     -9.30142519	    -12.60196124	     31.47362128	     46.14828947	      0.00000000	      0.00000000
     38.12271429	     -2.76021438	     -3.49255930	      3.66406074	      1.12133274	      0.93463702	      0.53468820	      8.53232634	      1.85870202	    -16.33817177	     14.48499577	     14.48499577	     10.02268985	     -1.35161412	     -6.21243818	     31.18204915	    -10.59760498	     -0.52477044	     43.81354434	     43.81354434	      9.36502447	    -17.70004641	     10.68262134	    -10.63021806	      5.71282406	      2.42364127	     13.38617360	    -22.40470672	     -1.77849291	     52.96917184	     45.68659405	      0.00000000	      0.00000000	      2.17474475	     -9.19223760	    -12.64091985	     31.41220926	     46.15393203	      0.00000000	      0.00000000
     38.13650000	     -2.93519194	     -3.36659190	      4.10790064	      1.12003173	      0.93463024	      0.53433198	      8.19001648	      1.76289304	    -16.61360419	     14.08504936	     14.08504936	     10.13052619	     -1.42741006	     -6.25825881	     31.60496333	     -9.94709550	     -0.22344112	     40.32650860	     40.32650860	      9.09007377	    -17.02111464	     10.98723192	    -10.62543929	      5.65991116	      2.56252711	     14.09735842	    -22.74455415	     -1.81287597	     53.31200468	     45.67874898	      0.00000000	      0.00000000	      2.03304971	     -9.11421436	    -12.68932827	     31.32719457	     46.16126089	      0.00000000	      0.00000000
